#define sparamviewer_width 16
#define sparamviewer_height 16
static unsigned char sparamviewer_bits[] = {
   0x00, 0x00, 0x80, 0x01, 0x00, 0x11, 0x94, 0x29, 0x20, 0x3c, 0x60, 0x62,
   0x10, 0x45, 0x12, 0x5c, 0x12, 0x1e, 0x10, 0x45, 0x60, 0x62, 0x20, 0x30,
   0x94, 0x29, 0x00, 0x11, 0x80, 0x01, 0x00, 0x00 };
