<?xml version="1.0" encoding="UTF-8" standalone="no"?>
<!-- Created with Inkscape (http://www.inkscape.org/) -->

<svg
   width="400"
   height="300"
   viewBox="0 0 105.83333 79.375"
   version="1.1"
   id="svg5"
   sodipodi:docname="splash.svg"
   inkscape:version="1.2.2 (732a01da63, 2022-12-09)"
   inkscape:export-filename="splash.png"
   inkscape:export-xdpi="96.000008"
   inkscape:export-ydpi="96.000008"
   xmlns:inkscape="http://www.inkscape.org/namespaces/inkscape"
   xmlns:sodipodi="http://sodipodi.sourceforge.net/DTD/sodipodi-0.dtd"
   xmlns="http://www.w3.org/2000/svg"
   xmlns:svg="http://www.w3.org/2000/svg">
  <sodipodi:namedview
     id="namedview7"
     pagecolor="#ffffff"
     bordercolor="#666666"
     borderopacity="1.0"
     inkscape:showpageshadow="2"
     inkscape:pageopacity="0.0"
     inkscape:pagecheckerboard="0"
     inkscape:deskcolor="#d1d1d1"
     inkscape:document-units="mm"
     showgrid="true"
     inkscape:zoom="1.4866667"
     inkscape:cx="158.07175"
     inkscape:cy="183.63229"
     inkscape:window-width="1920"
     inkscape:window-height="1137"
     inkscape:window-x="1912"
     inkscape:window-y="-8"
     inkscape:window-maximized="1"
     inkscape:current-layer="layer1">
    <inkscape:grid
       spacingx="2.6458333"
       spacingy="2.6458333"
       type="xygrid"
       id="grid4875" />
  </sodipodi:namedview>
  <defs
     id="defs2" />
  <g
     inkscape:label="Layer 1"
     inkscape:groupmode="layer"
     id="layer1">
    <rect
       style="font-variation-settings:normal;opacity:1;fill:#2b2b2b;fill-opacity:1;stroke:none;stroke-width:1.32291667;stroke-linecap:round;stroke-linejoin:round;stroke-miterlimit:4;stroke-dasharray:none;stroke-dashoffset:0;stroke-opacity:1;stop-color:#000000;stop-opacity:1"
       id="rect6047"
       width="105.83333"
       height="79.375"
       x="0"
       y="0" />
    <ellipse
       style="font-variation-settings:normal;opacity:1;fill:none;fill-opacity:1;stroke:#ffffff;stroke-width:1.32291667;stroke-linecap:round;stroke-linejoin:round;stroke-miterlimit:4;stroke-dasharray:none;stroke-dashoffset:0;stroke-opacity:1;stop-color:#000000;stop-opacity:1"
       id="path5117"
       cx="66.145836"
       cy="39.687504"
       rx="34.395832"
       ry="34.395836" />
    <ellipse
       style="font-variation-settings:normal;fill:none;fill-opacity:1;stroke:#ffffff;stroke-width:1.32292;stroke-linecap:round;stroke-linejoin:round;stroke-miterlimit:4;stroke-dasharray:none;stroke-dashoffset:0;stroke-opacity:1;stop-color:#000000"
       id="path5117-30"
       cx="66.145836"
       cy="39.687504"
       rx="34.395832"
       ry="34.395836" />
    <path
       id="path5117-30-2"
       style="font-variation-settings:normal;fill:none;fill-opacity:1;stroke:#ffffff;stroke-width:0.79375;stroke-linecap:round;stroke-linejoin:round;stroke-miterlimit:4;stroke-dasharray:none;stroke-dashoffset:0;stroke-opacity:1;stop-color:#000000"
       d="m 100.54167,39.6875 c -2.127695,-1.8e-5 -4.254635,-0.07931 -6.376365,-0.237711 -2.1219,-0.158351 -4.23712,-0.395713 -6.341208,-0.711585 -2.10403,-0.315937 -4.19546,-0.710159 -6.2699,-1.181839 -2.07435,-0.471549 -4.13028,-1.02022 -6.163454,-1.644862 -2.033208,-0.624823 -4.042242,-1.325183 -6.02289,-2.099613 -1.980716,-0.774383 -3.93166,-1.622297 -5.84874,-2.541964 -1.917019,-0.919537 -3.79884,-1.910178 -5.641516,-2.969844 -1.84262,-1.059742 -3.644803,-2.187766 -5.402771,-3.381706 -1.75817,-1.193935 -3.470891,-2.452965 -5.13457,-3.774446 -1.663469,-1.321621 -3.276729,-2.704762 -4.836397,-4.146518 -0.383752,-0.3752 -0.763936,-0.754005 -1.140499,-1.136364"
       sodipodi:nodetypes="cccccccccccc" />
    <path
       id="path5117-30-2-0"
       style="font-variation-settings:normal;fill:none;fill-opacity:1;stroke:#ffffff;stroke-width:0.79375;stroke-linecap:round;stroke-linejoin:round;stroke-miterlimit:4;stroke-dasharray:none;stroke-dashoffset:0;stroke-opacity:1;stop-color:#000000"
       d="m 100.54167,39.6875 c -2.127695,1.8e-5 -4.254635,0.07931 -6.376365,0.237711 -2.1219,0.158351 -4.23712,0.395713 -6.34121,0.711585 -2.10403,0.315937 -4.19546,0.710159 -6.2699,1.181839 -2.07435,0.471549 -4.13028,1.02022 -6.16346,1.644862 -2.033203,0.624823 -4.042237,1.325182 -6.022885,2.099613 -1.980716,0.774383 -3.93166,1.622297 -5.84874,2.541964 -1.917019,0.919537 -3.79884,1.910178 -5.641516,2.969844 -1.84262,1.059742 -3.644803,2.187766 -5.402771,3.381706 -1.75817,1.193935 -3.470891,2.452965 -5.13457,3.774446 -1.663469,1.321621 -3.276729,2.704762 -4.836397,4.146518 -0.383752,0.3752 -0.763936,0.754005 -1.140499,1.136364"
       sodipodi:nodetypes="cccccccccccc" />
    <path
       style="font-variation-settings:normal;opacity:1;fill:none;fill-opacity:1;stroke:#ffffff;stroke-width:0.79375;stroke-linecap:round;stroke-linejoin:round;stroke-miterlimit:4;stroke-dasharray:none;stroke-dashoffset:0;stroke-opacity:1;stop-color:#000000;stop-opacity:1"
       d="m 31.75,39.687505 h 68.79167"
       id="path5119" />
    <circle
       style="font-variation-settings:normal;opacity:1;fill:none;fill-opacity:1;stroke:#ffffff;stroke-width:0.79375;stroke-linecap:round;stroke-linejoin:round;stroke-miterlimit:4;stroke-dasharray:none;stroke-dashoffset:0;stroke-opacity:1;stop-color:#000000;stop-opacity:1"
       id="path5147"
       cx="83.34375"
       cy="39.687504"
       r="17.197916" />
    <path
       id="path5117-3"
       style="font-variation-settings:normal;fill:none;fill-opacity:1;stroke:#ffffff;stroke-width:0.79375;stroke-linecap:round;stroke-linejoin:round;stroke-miterlimit:4;stroke-dasharray:none;stroke-dashoffset:0;stroke-opacity:1;stop-color:#000000"
       d="M 86.33219,12.801802 A 17.197916,17.197916 0 0 0 85.648,13.890624 17.197916,17.197916 0 0 1 86.33219,12.801802 Z M 85.648,13.890624 a 17.197916,17.197916 0 0 0 -0.601,1.136882 17.197916,17.197916 0 0 1 0.601,-1.136882 z m -0.601,1.136882 a 17.197916,17.197916 0 0 0 -0.51418,1.178739 17.197916,17.197916 0 0 1 0.51418,-1.178739 z m -0.51418,1.178739 a 17.197916,17.197916 0 0 0 -0.42478,1.214396 17.197916,17.197916 0 0 1 0.42478,-1.214396 z m -0.42478,1.214396 a 17.197916,17.197916 0 0 0 -0.33331,1.242302 17.197916,17.197916 0 0 1 0.33331,-1.242302 z m -0.33331,1.242302 a 17.197916,17.197916 0 0 0 -0.23875,1.263488 17.197916,17.197916 0 0 1 0.23875,-1.263488 z m -0.23875,1.263488 a 17.197916,17.197916 0 0 0 -0.14417,1.277958 17.197916,17.197916 0 0 1 0.14417,-1.277958 z m -0.14417,1.277958 a 17.197916,17.197916 0 0 0 -0.04806,1.285193 17.197916,17.197916 0 0 1 0.04806,-1.285193 z m -0.04806,1.285193 a 17.197916,17.197916 0 0 0 0.04806,1.285193 17.197916,17.197916 0 0 1 -0.04806,-1.285193 z m 0.04806,1.285193 a 17.197916,17.197916 0 0 0 0.14417,1.277958 17.197916,17.197916 0 0 1 -0.14417,-1.277958 z m 0.14417,1.277958 a 17.197916,17.197916 0 0 0 0.23875,1.263489 17.197916,17.197916 0 0 1 -0.23875,-1.263489 z m 0.23875,1.263489 a 17.197916,17.197916 0 0 0 0.33331,1.242302 17.197916,17.197916 0 0 1 -0.33331,-1.242302 z m 0.33331,1.242302 a 17.197916,17.197916 0 0 0 0.42478,1.214396 17.197916,17.197916 0 0 1 -0.42478,-1.214396 z m 0.42478,1.214396 A 17.197916,17.197916 0 0 0 85.047,29.951659 17.197916,17.197916 0 0 1 84.53282,28.77292 Z m 0.51418,1.178739 a 17.197916,17.197916 0 0 0 0.601,1.136881 17.197916,17.197916 0 0 1 -0.601,-1.136881 z m 0.601,1.136881 A 17.197916,17.197916 0 0 0 86.33219,32.177362 17.197916,17.197916 0 0 1 85.648,31.08854 Z m 0.68419,1.088822 a 17.197916,17.197916 0 0 0 0.76378,1.03508 17.197916,17.197916 0 0 1 -0.76378,-1.03508 z m 0.76378,1.03508 a 17.197916,17.197916 0 0 0 0.83871,0.974617 17.197916,17.197916 0 0 1 -0.83871,-0.974617 z m 0.83871,0.974617 a 17.197916,17.197916 0 0 0 0.90951,0.909505 17.197916,17.197916 0 0 1 -0.90951,-0.909505 z m 0.90951,0.909505 a 17.197916,17.197916 0 0 0 0.97461,0.838709 17.197916,17.197916 0 0 1 -0.97461,-0.838709 z m 0.97461,0.838709 a 17.197916,17.197916 0 0 0 1.03508,0.763777 17.197916,17.197916 0 0 1 -1.03508,-0.763777 z m 1.03508,0.763777 a 17.197916,17.197916 0 0 0 1.08882,0.684196 17.197916,17.197916 0 0 1 -1.08882,-0.684196 z m 1.08882,0.684196 a 17.197916,17.197916 0 0 0 1.13689,0.600997 17.197916,17.197916 0 0 1 -1.13689,-0.600997 z m 1.13689,0.600997 a 17.197916,17.197916 0 0 0 1.17874,0.514181 17.197916,17.197916 0 0 1 -1.17874,-0.514181 z m 1.17874,0.514181 a 17.197916,17.197916 0 0 0 1.21439,0.42478 17.197916,17.197916 0 0 1 -1.21439,-0.42478 z m 1.21439,0.42478 a 17.197916,17.197916 0 0 0 1.24179,0.333313 17.197916,17.197916 0 0 1 -1.24179,-0.333313 z m 1.24179,0.333313 a 17.197916,17.197916 0 0 0 1.264,0.238745 17.197916,17.197916 0 0 1 -1.264,-0.238745 z m 1.264,0.238745 a 17.197916,17.197916 0 0 0 1.277965,0.144178 17.197916,17.197916 0 0 1 -1.277965,-0.144178 z m 1.277965,0.144178 a 17.197916,17.197916 0 0 0 1.285195,0.04806 17.197916,17.197916 0 0 1 -1.285195,-0.04806 z" />
    <path
       id="path5117-3-6"
       style="font-variation-settings:normal;fill:none;fill-opacity:1;stroke:#ffffff;stroke-width:0.79375;stroke-linecap:round;stroke-linejoin:round;stroke-miterlimit:4;stroke-dasharray:none;stroke-dashoffset:0;stroke-opacity:1;stop-color:#000000"
       d="m 86.332185,66.573198 a 17.197916,17.197916 0 0 1 -0.68419,-1.088822 17.197916,17.197916 0 0 0 0.68419,1.088822 z m -0.68419,-1.088822 a 17.197916,17.197916 0 0 1 -0.601,-1.136882 17.197916,17.197916 0 0 0 0.601,1.136882 z m -0.601,-1.136882 a 17.197916,17.197916 0 0 1 -0.51418,-1.178739 17.197916,17.197916 0 0 0 0.51418,1.178739 z m -0.51418,-1.178739 a 17.197916,17.197916 0 0 1 -0.424781,-1.214396 17.197916,17.197916 0 0 0 0.424781,1.214396 z m -0.424781,-1.214396 a 17.197916,17.197916 0 0 1 -0.33331,-1.242302 17.197916,17.197916 0 0 0 0.33331,1.242302 z m -0.33331,-1.242302 a 17.197916,17.197916 0 0 1 -0.23875,-1.263488 17.197916,17.197916 0 0 0 0.23875,1.263488 z m -0.23875,-1.263488 a 17.197916,17.197916 0 0 1 -0.14417,-1.277958 17.197916,17.197916 0 0 0 0.14417,1.277958 z m -0.14417,-1.277958 a 17.197916,17.197916 0 0 1 -0.04806,-1.285193 17.197916,17.197916 0 0 0 0.04806,1.285193 z m -0.04806,-1.285193 a 17.197916,17.197916 0 0 1 0.04806,-1.285193 17.197916,17.197916 0 0 0 -0.04806,1.285193 z m 0.04806,-1.285193 a 17.197916,17.197916 0 0 1 0.14417,-1.277958 17.197916,17.197916 0 0 0 -0.14417,1.277958 z m 0.14417,-1.277958 a 17.197916,17.197916 0 0 1 0.23875,-1.263489 17.197916,17.197916 0 0 0 -0.23875,1.263489 z m 0.23875,-1.263489 a 17.197916,17.197916 0 0 1 0.33331,-1.242302 17.197916,17.197916 0 0 0 -0.33331,1.242302 z m 0.33331,-1.242302 a 17.197916,17.197916 0 0 1 0.424781,-1.214396 17.197916,17.197916 0 0 0 -0.424781,1.214396 z m 0.424781,-1.214396 a 17.197916,17.197916 0 0 1 0.51418,-1.178739 17.197916,17.197916 0 0 0 -0.51418,1.178739 z m 0.51418,-1.178739 a 17.197916,17.197916 0 0 1 0.601,-1.136881 17.197916,17.197916 0 0 0 -0.601,1.136881 z m 0.601,-1.136881 a 17.197916,17.197916 0 0 1 0.68419,-1.088822 17.197916,17.197916 0 0 0 -0.68419,1.088822 z m 0.68419,-1.088822 a 17.197916,17.197916 0 0 1 0.76378,-1.03508 17.197916,17.197916 0 0 0 -0.76378,1.03508 z m 0.76378,-1.03508 a 17.197916,17.197916 0 0 1 0.83871,-0.974617 17.197916,17.197916 0 0 0 -0.83871,0.974617 z m 0.83871,-0.974617 a 17.197916,17.197916 0 0 1 0.90951,-0.909505 17.197916,17.197916 0 0 0 -0.90951,0.909505 z m 0.90951,-0.909505 a 17.197916,17.197916 0 0 1 0.97461,-0.838709 17.197916,17.197916 0 0 0 -0.97461,0.838709 z m 0.97461,-0.838709 a 17.197916,17.197916 0 0 1 1.03508,-0.763777 17.197916,17.197916 0 0 0 -1.03508,0.763777 z m 1.03508,-0.763777 a 17.197916,17.197916 0 0 1 1.08882,-0.684196 17.197916,17.197916 0 0 0 -1.08882,0.684196 z m 1.08882,-0.684196 a 17.197916,17.197916 0 0 1 1.13689,-0.600997 17.197916,17.197916 0 0 0 -1.13689,0.600997 z m 1.13689,-0.600997 a 17.197916,17.197916 0 0 1 1.17874,-0.514181 17.197916,17.197916 0 0 0 -1.17874,0.514181 z m 1.17874,-0.514181 a 17.197916,17.197916 0 0 1 1.21439,-0.42478 17.197916,17.197916 0 0 0 -1.21439,0.42478 z m 1.21439,-0.42478 a 17.197916,17.197916 0 0 1 1.24179,-0.333313 17.197916,17.197916 0 0 0 -1.24179,0.333313 z m 1.24179,-0.333313 a 17.197916,17.197916 0 0 1 1.264,-0.238745 17.197916,17.197916 0 0 0 -1.264,0.238745 z m 1.264,-0.238745 a 17.197916,17.197916 0 0 1 1.27796,-0.144178 17.197916,17.197916 0 0 0 -1.27796,0.144178 z m 1.27796,-0.144178 a 17.197916,17.197916 0 0 1 1.285205,-0.04806 17.197916,17.197916 0 0 0 -1.285205,0.04806 z" />
    <circle
       style="font-variation-settings:normal;fill:none;fill-opacity:1;stroke:#ffffff;stroke-width:0.79375;stroke-linecap:round;stroke-linejoin:round;stroke-miterlimit:4;stroke-dasharray:none;stroke-dashoffset:0;stroke-opacity:1;stop-color:#000000"
       id="path5147-2"
       cx="90.950523"
       cy="39.6875"
       r="9.5911446" />
    <circle
       style="font-variation-settings:normal;fill:none;fill-opacity:1;stroke:#ffffff;stroke-width:0.79375;stroke-linecap:round;stroke-linejoin:round;stroke-miterlimit:4;stroke-dasharray:none;stroke-dashoffset:0;stroke-opacity:1;stop-color:#000000"
       id="path5147-5"
       cx="75.40625"
       cy="39.6875"
       r="25.135414" />
    <path
       id="path5117-2"
       style="font-variation-settings:normal;fill:none;fill-opacity:1;stroke:#ffffff;stroke-width:0.79375;stroke-linecap:round;stroke-linejoin:round;stroke-miterlimit:4;stroke-dasharray:none;stroke-dashoffset:0;stroke-opacity:1;stop-color:#000000"
       d="m 66.070382,5.3877886 a 34.395832,34.395836 0 0 0 0.09612,2.5703864 34.395832,34.395836 0 0 1 -0.09612,-2.5703864 z m 0.09612,2.5703864 a 34.395832,34.395836 0 0 0 0.28784,2.555916 34.395832,34.395836 0 0 1 -0.28784,-2.555916 z m 0.28784,2.555916 a 34.395832,34.395836 0 0 0 0.47852,2.527495 34.395832,34.395836 0 0 1 -0.47852,-2.527495 z m 0.47852,2.527495 a 34.395832,34.395836 0 0 0 0.66559,2.484603 34.395832,34.395836 0 0 1 -0.66559,-2.484603 z m 0.66559,2.484603 a 34.395832,34.395836 0 0 0 0.84956,2.427758 34.395832,34.395836 0 0 1 -0.84956,-2.427758 z m 0.84956,2.427758 a 34.395832,34.395836 0 0 0 1.02888,2.357479 34.395832,34.395836 0 0 1 -1.02888,-2.357479 z m 1.02888,2.357479 a 34.395832,34.395836 0 0 0 1.20148,2.27428 34.395832,34.395836 0 0 1 -1.20148,-2.27428 z m 1.20148,2.27428 a 34.395832,34.395836 0 0 0 1.36891,2.178162 34.395832,34.395836 0 0 1 -1.36891,-2.178162 z m 1.36891,2.178162 a 34.395832,34.395836 0 0 0 1.52703,2.069124 34.395832,34.395836 0 0 1 -1.52703,-2.069124 z m 1.52703,2.069124 a 34.395832,34.395836 0 0 0 1.67794,1.949752 34.395832,34.395836 0 0 1 -1.67794,-1.949752 z m 1.67794,1.949752 a 34.395832,34.395836 0 0 0 1.81901,1.81901 34.395832,34.395836 0 0 1 -1.81901,-1.81901 z m 1.81901,1.81901 a 34.395832,34.395836 0 0 0 1.94975,1.677934 34.395832,34.395836 0 0 1 -1.94975,-1.677934 z m 1.94975,1.677934 a 34.395832,34.395836 0 0 0 2.06913,1.527039 34.395832,34.395836 0 0 1 -2.06913,-1.527039 z m 2.06913,1.527039 a 34.395832,34.395836 0 0 0 2.17816,1.368908 34.395832,34.395836 0 0 1 -2.17816,-1.368908 z m 2.17816,1.368908 a 34.395832,34.395836 0 0 0 2.27428,1.201477 34.395832,34.395836 0 0 1 -2.27428,-1.201477 z m 2.27428,1.201477 a 34.395832,34.395836 0 0 0 2.35748,1.028878 34.395832,34.395836 0 0 1 -2.35748,-1.028878 z m 2.35748,1.028878 a 34.395832,34.395836 0 0 0 2.42775,0.849561 34.395832,34.395836 0 0 1 -2.42775,-0.849561 z m 2.42775,0.849561 a 34.395832,34.395836 0 0 0 2.48461,0.665592 34.395832,34.395836 0 0 1 -2.48461,-0.665592 z m 2.48461,0.665592 a 34.395832,34.395836 0 0 0 2.52749,0.478524 34.395832,34.395836 0 0 1 -2.52749,-0.478524 z m 2.52749,0.478524 a 34.395832,34.395836 0 0 0 2.55592,0.287838 34.395832,34.395836 0 0 1 -2.55592,-0.287838 z m 2.55592,0.287838 a 34.395832,34.395836 0 0 0 2.570378,0.09612 34.395832,34.395836 0 0 1 -2.570378,-0.09612 z" />
    <path
       id="path5117-2-5"
       style="font-variation-settings:normal;fill:none;fill-opacity:1;stroke:#ffffff;stroke-width:0.79375;stroke-linecap:round;stroke-linejoin:round;stroke-miterlimit:4;stroke-dasharray:none;stroke-dashoffset:0;stroke-opacity:1;stop-color:#000000"
       d="m 66.145836,74.083341 a 34.395832,34.395836 0 0 1 0.09612,-2.570386 34.395832,34.395836 0 0 0 -0.09612,2.570386 z m 0.09612,-2.570386 a 34.395832,34.395836 0 0 1 0.28784,-2.555916 34.395832,34.395836 0 0 0 -0.28784,2.555916 z m 0.28784,-2.555916 a 34.395832,34.395836 0 0 1 0.47852,-2.527495 34.395832,34.395836 0 0 0 -0.47852,2.527495 z m 0.47852,-2.527495 a 34.395832,34.395836 0 0 1 0.66559,-2.484603 34.395832,34.395836 0 0 0 -0.66559,2.484603 z m 0.66559,-2.484603 a 34.395832,34.395836 0 0 1 0.84956,-2.427758 34.395832,34.395836 0 0 0 -0.84956,2.427758 z m 0.84956,-2.427758 a 34.395832,34.395836 0 0 1 1.02888,-2.357479 34.395832,34.395836 0 0 0 -1.02888,2.357479 z m 1.02888,-2.357479 a 34.395832,34.395836 0 0 1 1.20148,-2.27428 34.395832,34.395836 0 0 0 -1.20148,2.27428 z m 1.20148,-2.27428 a 34.395832,34.395836 0 0 1 1.36891,-2.178162 34.395832,34.395836 0 0 0 -1.36891,2.178162 z m 1.36891,-2.178162 a 34.395832,34.395836 0 0 1 1.52703,-2.069124 34.395832,34.395836 0 0 0 -1.52703,2.069124 z m 1.52703,-2.069124 a 34.395832,34.395836 0 0 1 1.67794,-1.949752 34.395832,34.395836 0 0 0 -1.67794,1.949752 z m 1.67794,-1.949752 a 34.395832,34.395836 0 0 1 1.81901,-1.81901 34.395832,34.395836 0 0 0 -1.81901,1.81901 z m 1.81901,-1.81901 a 34.395832,34.395836 0 0 1 1.94975,-1.677934 34.395832,34.395836 0 0 0 -1.94975,1.677934 z m 1.94975,-1.677934 a 34.395832,34.395836 0 0 1 2.06913,-1.527039 34.395832,34.395836 0 0 0 -2.06913,1.527039 z m 2.06913,-1.527039 a 34.395832,34.395836 0 0 1 2.17816,-1.368908 34.395832,34.395836 0 0 0 -2.17816,1.368908 z m 2.17816,-1.368908 a 34.395832,34.395836 0 0 1 2.27428,-1.201477 34.395832,34.395836 0 0 0 -2.27428,1.201477 z m 2.27428,-1.201477 a 34.395832,34.395836 0 0 1 2.35748,-1.028878 34.395832,34.395836 0 0 0 -2.35748,1.028878 z m 2.35748,-1.028878 a 34.395832,34.395836 0 0 1 2.42775,-0.849561 34.395832,34.395836 0 0 0 -2.42775,0.849561 z m 2.42775,-0.849561 a 34.395832,34.395836 0 0 1 2.48461,-0.665592 34.395832,34.395836 0 0 0 -2.48461,0.665592 z m 2.48461,-0.665592 a 34.395832,34.395836 0 0 1 2.52749,-0.478524 34.395832,34.395836 0 0 0 -2.52749,0.478524 z m 2.52749,-0.478524 a 34.395832,34.395836 0 0 1 2.55592,-0.287838 34.395832,34.395836 0 0 0 -2.55592,0.287838 z m 2.55592,-0.287838 a 34.395832,34.395836 0 0 1 2.570384,-0.09612 34.395832,34.395836 0 0 0 -2.570384,0.09612 z" />
  </g>
</svg>
