<?xml version="1.0" encoding="UTF-8" standalone="no"?>
<!-- Created with Inkscape (http://www.inkscape.org/) -->

<svg
   width="16"
   height="16"
   viewBox="0 0 4.2333332 4.2333333"
   version="1.1"
   id="svg1"
   inkscape:version="1.4.2 (ebf0e940d0, 2025-05-08)"
   sodipodi:docname="toolbar_settings.svg"
   inkscape:export-filename="filesys_archive_pin.png"
   inkscape:export-xdpi="96"
   inkscape:export-ydpi="96"
   xmlns:inkscape="http://www.inkscape.org/namespaces/inkscape"
   xmlns:sodipodi="http://sodipodi.sourceforge.net/DTD/sodipodi-0.dtd"
   xmlns="http://www.w3.org/2000/svg"
   xmlns:svg="http://www.w3.org/2000/svg">
  <sodipodi:namedview
     id="namedview1"
     pagecolor="#ffffff"
     bordercolor="#000000"
     borderopacity="0.25"
     inkscape:showpageshadow="2"
     inkscape:pageopacity="0.0"
     inkscape:pagecheckerboard="0"
     inkscape:deskcolor="#d1d1d1"
     inkscape:document-units="mm"
     inkscape:zoom="54.875"
     inkscape:cx="8.8291572"
     inkscape:cy="7.690205"
     inkscape:window-width="1920"
     inkscape:window-height="1131"
     inkscape:window-x="0"
     inkscape:window-y="0"
     inkscape:window-maximized="1"
     inkscape:current-layer="svg1"
     showgrid="true">
    <inkscape:grid
       id="grid2"
       units="px"
       originx="0"
       originy="0"
       spacingx="0.26458332"
       spacingy="0.26458332"
       empcolor="#0099e5"
       empopacity="0.30196078"
       color="#0099e5"
       opacity="0.14901961"
       empspacing="5"
       enabled="true"
       visible="true" />
    <inkscape:grid
       id="grid3"
       units="px"
       originx="0.13229166"
       originy="0.13229166"
       spacingx="0.26458332"
       spacingy="0.26458332"
       empcolor="#67e500"
       empopacity="0.30196078"
       color="#51e500"
       opacity="0.14901961"
       empspacing="5"
       enabled="true"
       visible="true"
       dotted="true" />
  </sodipodi:namedview>
  <defs
     id="defs1" />
  <path
     id="path1"
     style="fill:none;fill-opacity:1;stroke:#000000;stroke-width:0.265112;stroke-linecap:square;stroke-miterlimit:10;stroke-opacity:1"
     d="M 1.8520835,0.52916658 1.7306438,0.89348542 A 1.2825361,1.2825361 0 0 0 1.5249716,0.97875149 L 1.1813234,0.80718578 0.80718594,1.1813232 0.97926844,1.5254882 A 1.2825361,1.2825361 0 0 0 0.89400235,1.7306436 L 0.52916674,1.8520832 v 0.5291667 l 0.36483561,0.1214396 a 1.2825361,1.2825361 0 0 0 0.0852661,0.2056722 L 0.80718594,3.05201 1.1813234,3.4261473 1.5249716,3.2545816 a 1.2825361,1.2825361 0 0 0 0.2056722,0.085266 L 1.8520835,3.7041665 H 2.3812501 L 2.5026897,3.3398477 a 1.2825361,1.2825361 0 0 0 0.206189,-0.085266 L 3.052527,3.4261473 3.4266644,3.05201 3.2545818,2.7083617 A 1.2825361,1.2825361 0 0 0 3.339848,2.5026895 L 3.7041668,2.3812499 V 1.8520832 L 3.339848,1.7306436 A 1.2825361,1.2825361 0 0 0 3.2545818,1.5249714 L 3.4266644,1.1813232 3.052527,0.80718578 2.7088787,0.97875149 A 1.2825361,1.2825361 0 0 0 2.5026897,0.89348542 L 2.3812501,0.52916658 Z" />
  <circle
     style="fill:none;fill-opacity:1;stroke:#000000;stroke-width:0.265112;stroke-linecap:square;stroke-miterlimit:10;stroke-opacity:1"
     id="path2"
     cx="2.1166666"
     cy="2.1166666"
     r="0.66145831" />
</svg>
